# xmcd CD database file
#
# Track frame offsets:
#	183
#	13348
#	23865
#	49170
#	61530
#	88125
#	104313
#	126618
#	157593
#	174278
#	196278
#
# Disc length: 3149 seconds
#
# Revision: 0
# Processed by: cddbd v1.4PL0 Copyright (c) Steve Scherf et al.
# Submitted via: CDex 1.40Release
#
DISCID=870c4b0b
DTITLE=BB King and Ray Charles - live in milano 1990 cd2
DYEAR=1900
DGENRE=Blues
TTITLE0=Intro/Let The Good Time Roll
TTITLE1=Busted
TTITLE2=Georgia On My Mind
TTITLE3=I'm Gonna Move To The Outskirts Of Town
TTITLE4=Just For A Thrill
TTITLE5=Teardrops From My Eyes
TTITLE6=Ellie, My Love So Sweet
TTITLE7=Gotta Move
TTITLE8=I Can't Stop Loving You
TTITLE9=What'd I Say
TTITLE10=Intro/It's Time For Me To Close The Show/I Get The Blues/Out
EXTD=ID3G: 0
EXTT0=
EXTT1=
EXTT2=
EXTT3=
EXTT4=
EXTT5=
EXTT6=
EXTT7=
EXTT8=
EXTT9=
EXTT10=
PLAYORDER=
